<svg xmlns="http://www.w3.org/2000/svg" width="136" height="57" viewBox="0 0 136 57"><g fill="none" fill-rule="evenodd"><polygon fill="#24272B" points="0 57 31.569 57 31.569 31.667 0 31.667"/><path fill="#225BFB" d="M18.6889508,31.7992444 L6.19345094,44.3333333 L18.6889508,56.8673167 L31.1844506,44.3333333 L18.6889508,31.7992444 Z M18.6889508,36.3784556 L26.6193377,44.3333333 C26.6193377,44.3333333 18.6889508,52.2882111 18.6889508,52.2882111 C18.6889508,52.2882111 10.7585639,44.3333333 10.7585639,44.3333333 L18.6889508,36.3784556 Z"/><path fill="#C7CBD1" d="M51.1168059,53.1437389 L51.7734448,53.1437389 C52.3290622,53.1437389 52.6321263,52.8144056 52.6321263,52.2064056 L52.6321263,37.8930722 L57.2538533,37.8930722 C57.7337047,37.8930722 58.0115135,37.6144056 58.0115135,37.0824056 L58.0115135,36.3730722 C58.0115135,35.8664056 57.7337047,35.5624056 57.2538533,35.5624056 L45.6111421,35.5624056 C45.1312906,35.5624056 44.8534819,35.8664056 44.8534819,36.3730722 L44.8534819,37.0824056 C44.8534819,37.6144056 45.1312906,37.8930722 45.6111421,37.8930722 L50.2328691,37.8930722 L50.2328691,52.2064056 C50.2328691,52.8144056 50.5359331,53.1437389 51.1168059,53.1437389 Z"/><path d="M51.1168059,53.1437389 L51.7734448,53.1437389 C52.3290622,53.1437389 52.6321263,52.8144056 52.6321263,52.2064056 L52.6321263,37.8930722 L57.2538533,37.8930722 C57.7337047,37.8930722 58.0115135,37.6144056 58.0115135,37.0824056 L58.0115135,36.3730722 C58.0115135,35.8664056 57.7337047,35.5624056 57.2538533,35.5624056 L45.6111421,35.5624056 C45.1312906,35.5624056 44.8534819,35.8664056 44.8534819,36.3730722 L44.8534819,37.0824056 C44.8534819,37.6144056 45.1312906,37.8930722 45.6111421,37.8930722 L50.2328691,37.8930722 L50.2328691,52.2064056 C50.2328691,52.8144056 50.5359331,53.1437389 51.1168059,53.1437389 Z"/><path fill="#C7CBD1" d="M62.7595172,53.1437389 L71.4220984,53.1437389 C71.8766945,53.1437389 72.1292479,52.8904056 72.1797586,52.4090722 L72.2807799,51.6237389 C72.356546,51.0917389 72.0787372,50.7877389 71.5988858,50.7877389 L64.3253482,50.7877389 L64.3253482,45.9997389 L70.0330548,45.9997389 C70.4876509,45.9997389 70.7654596,45.6957389 70.7654596,45.2144056 L70.7654596,44.4290722 C70.7654596,43.9477389 70.4876509,43.6437389 70.0330548,43.6437389 L64.3253482,43.6437389 L64.3253482,37.9184056 L71.4726091,37.9184056 C71.9272052,37.9184056 72.2050139,37.6144056 72.2050139,37.1330722 L72.2050139,36.3477389 C72.2050139,35.8664056 71.9272052,35.5624056 71.4726091,35.5624056 L62.7595172,35.5624056 C62.2291551,35.5624056 61.926091,35.8917389 61.926091,36.4490722 L61.926091,52.2570722 C61.926091,52.8144056 62.2291551,53.1437389 62.7595172,53.1437389 Z"/><path d="M62.7595172,53.1437389 L71.4220984,53.1437389 C71.8766945,53.1437389 72.1292479,52.8904056 72.1797586,52.4090722 L72.2807799,51.6237389 C72.356546,51.0917389 72.0787372,50.7877389 71.5988858,50.7877389 L64.3253482,50.7877389 L64.3253482,45.9997389 L70.0330548,45.9997389 C70.4876509,45.9997389 70.7654596,45.6957389 70.7654596,45.2144056 L70.7654596,44.4290722 C70.7654596,43.9477389 70.4876509,43.6437389 70.0330548,43.6437389 L64.3253482,43.6437389 L64.3253482,37.9184056 L71.4726091,37.9184056 C71.9272052,37.9184056 72.2050139,37.6144056 72.2050139,37.1330722 L72.2050139,36.3477389 C72.2050139,35.8664056 71.9272052,35.5624056 71.4726091,35.5624056 L62.7595172,35.5624056 C62.2291551,35.5624056 61.926091,35.8917389 61.926091,36.4490722 L61.926091,52.2570722 C61.926091,52.8144056 62.2291551,53.1437389 62.7595172,53.1437389 Z"/><path fill="#C7CBD1" d="M86.7268338,52.8144056 L86.8025998,52.1557389 C86.8783658,51.6490722 86.6258124,51.2944056 86.145961,51.2437389 L83.5699164,50.9650722 C80.0846797,50.6104056 78.5188487,48.8117389 78.5188487,45.1637389 L78.5188487,43.3144056 C78.5188487,39.8184056 80.3877437,37.8930722 83.7972145,37.8930722 L86.1207057,37.8930722 C86.6258124,37.8930722 86.9036212,37.6144056 86.9036212,37.0824056 L86.9036212,36.3730722 C86.9036212,35.8664056 86.6258124,35.5624056 86.1207057,35.5624056 L83.8224698,35.5624056 C78.6451253,35.5624056 76.0438254,38.5264056 76.0438254,44.4544056 C76.0438254,50.1037389 78.4178273,52.8904056 83.6204271,53.3210722 L85.8934076,53.5237389 C86.3732591,53.5490722 86.6763231,53.3464056 86.7268338,52.8144056 Z"/><path d="M86.7268338,52.8144056 L86.8025998,52.1557389 C86.8783658,51.6490722 86.6258124,51.2944056 86.145961,51.2437389 L83.5699164,50.9650722 C80.0846797,50.6104056 78.5188487,48.8117389 78.5188487,45.1637389 L78.5188487,43.3144056 C78.5188487,39.8184056 80.3877437,37.8930722 83.7972145,37.8930722 L86.1207057,37.8930722 C86.6258124,37.8930722 86.9036212,37.6144056 86.9036212,37.0824056 L86.9036212,36.3730722 C86.9036212,35.8664056 86.6258124,35.5624056 86.1207057,35.5624056 L83.8224698,35.5624056 C78.6451253,35.5624056 76.0438254,38.5264056 76.0438254,44.4544056 C76.0438254,50.1037389 78.4178273,52.8904056 83.6204271,53.3210722 L85.8934076,53.5237389 C86.3732591,53.5490722 86.6763231,53.3464056 86.7268338,52.8144056 Z"/><path fill="#C7CBD1" d="M103.243825,35.5624056 L102.587187,35.5624056 C102.031569,35.5624056 101.70325,35.8917389 101.70325,36.4997389 L101.70325,43.9224056 L93.7730734,43.9224056 L93.7730734,36.4997389 C93.7730734,35.8917389 93.4447539,35.5624056 92.8891365,35.5624056 L92.2324977,35.5624056 C91.6768802,35.5624056 91.3738162,35.8917389 91.3738162,36.4997389 L91.3738162,52.2064056 C91.3738162,52.8144056 91.6768802,53.1437389 92.2324977,53.1437389 L92.8891365,53.1437389 C93.4447539,53.1437389 93.7730734,52.8144056 93.7730734,52.2064056 L93.7730734,46.2784056 L101.70325,46.2784056 L101.70325,52.2064056 C101.70325,52.8144056 102.031569,53.1437389 102.587187,53.1437389 L103.243825,53.1437389 C103.799443,53.1437389 104.102507,52.8144056 104.102507,52.2064056 L104.102507,36.4997389 C104.102507,35.8917389 103.799443,35.5624056 103.243825,35.5624056 Z"/><path d="M103.243825,35.5624056 L102.587187,35.5624056 C102.031569,35.5624056 101.70325,35.8917389 101.70325,36.4997389 L101.70325,43.9224056 L93.7730734,43.9224056 L93.7730734,36.4997389 C93.7730734,35.8917389 93.4447539,35.5624056 92.8891365,35.5624056 L92.2324977,35.5624056 C91.6768802,35.5624056 91.3738162,35.8917389 91.3738162,36.4997389 L91.3738162,52.2064056 C91.3738162,52.8144056 91.6768802,53.1437389 92.2324977,53.1437389 L92.8891365,53.1437389 C93.4447539,53.1437389 93.7730734,52.8144056 93.7730734,52.2064056 L93.7730734,46.2784056 L101.70325,46.2784056 L101.70325,52.2064056 C101.70325,52.8144056 102.031569,53.1437389 102.587187,53.1437389 L103.243825,53.1437389 C103.799443,53.1437389 104.102507,52.8144056 104.102507,52.2064056 L104.102507,36.4997389 C104.102507,35.8917389 103.799443,35.5624056 103.243825,35.5624056 Z"/><path fill="#C7CBD1" d="M58.5671309,3.89573889 L57.9104921,3.89573889 C57.3548747,3.89573889 57.0265552,4.22507222 57.0265552,4.83307222 L57.0265552,12.2557389 L49.0963788,12.2557389 L49.0963788,4.83307222 C49.0963788,4.22507222 48.7680594,3.89573889 48.212442,3.89573889 L47.5558032,3.89573889 C47.0001857,3.89573889 46.6971216,4.22507222 46.6971216,4.83307222 L46.6971216,20.5397389 C46.6971216,21.1477389 47.0001857,21.4770722 47.5558032,21.4770722 L48.212442,21.4770722 C48.7680594,21.4770722 49.0963788,21.1477389 49.0963788,20.5397389 L49.0963788,14.6117389 L57.0265552,14.6117389 L57.0265552,20.5397389 C57.0265552,21.1477389 57.3548747,21.4770722 57.9104921,21.4770722 L58.5671309,21.4770722 C59.1227484,21.4770722 59.4258124,21.1477389 59.4258124,20.5397389 L59.4258124,4.83307222 C59.4258124,4.22507222 59.1227484,3.89573889 58.5671309,3.89573889 Z"/><path d="M58.5671309,3.89573889 L57.9104921,3.89573889 C57.3548747,3.89573889 57.0265552,4.22507222 57.0265552,4.83307222 L57.0265552,12.2557389 L49.0963788,12.2557389 L49.0963788,4.83307222 C49.0963788,4.22507222 48.7680594,3.89573889 48.212442,3.89573889 L47.5558032,3.89573889 C47.0001857,3.89573889 46.6971216,4.22507222 46.6971216,4.83307222 L46.6971216,20.5397389 C46.6971216,21.1477389 47.0001857,21.4770722 47.5558032,21.4770722 L48.212442,21.4770722 C48.7680594,21.4770722 49.0963788,21.1477389 49.0963788,20.5397389 L49.0963788,14.6117389 L57.0265552,14.6117389 L57.0265552,20.5397389 C57.0265552,21.1477389 57.3548747,21.4770722 57.9104921,21.4770722 L58.5671309,21.4770722 C59.1227484,21.4770722 59.4258124,21.1477389 59.4258124,20.5397389 L59.4258124,4.83307222 C59.4258124,4.22507222 59.1227484,3.89573889 58.5671309,3.89573889 Z"/><path fill="#C7CBD1" d="M71.4220984,21.8064056 C75.63974,21.8064056 77.6854225,19.8557389 77.6854225,15.7517389 L77.6854225,4.83307222 C77.6854225,4.22507222 77.3823584,3.89573889 76.8267409,3.89573889 L76.1701021,3.89573889 C75.6144847,3.89573889 75.2861653,4.22507222 75.2861653,4.83307222 L75.2861653,15.7010722 C75.2861653,18.2597389 74.0233983,19.4757389 71.4220984,19.4757389 C68.8207985,19.4757389 67.5832869,18.2597389 67.5832869,15.7010722 L67.5832869,4.83307222 C67.5832869,4.22507222 67.2802228,3.89573889 66.7246054,3.89573889 L66.0427112,3.89573889 C65.4870938,3.89573889 65.1840297,4.22507222 65.1840297,4.83307222 L65.1840297,15.7517389 C65.1840297,19.8557389 67.2044568,21.8064056 71.4220984,21.8064056 Z"/><path d="M71.4220984,21.8064056 C75.63974,21.8064056 77.6854225,19.8557389 77.6854225,15.7517389 L77.6854225,4.83307222 C77.6854225,4.22507222 77.3823584,3.89573889 76.8267409,3.89573889 L76.1701021,3.89573889 C75.6144847,3.89573889 75.2861653,4.22507222 75.2861653,4.83307222 L75.2861653,15.7010722 C75.2861653,18.2597389 74.0233983,19.4757389 71.4220984,19.4757389 C68.8207985,19.4757389 67.5832869,18.2597389 67.5832869,15.7010722 L67.5832869,4.83307222 C67.5832869,4.22507222 67.2802228,3.89573889 66.7246054,3.89573889 L66.0427112,3.89573889 C65.4870938,3.89573889 65.1840297,4.22507222 65.1840297,4.83307222 L65.1840297,15.7517389 C65.1840297,19.8557389 67.2044568,21.8064056 71.4220984,21.8064056 Z"/><path fill="#C7CBD1" d="M99.1524605,5.23840556 C99.1524605,4.35173889 98.7231198,3.89573889 97.8896936,3.89573889 L97.1825441,3.89573889 C96.4753946,3.89573889 95.9955432,4.19973889 95.6924791,4.88373889 L91.3738162,13.6997389 L87.0298979,4.88373889 C86.7268338,4.19973889 86.2722377,3.89573889 85.5650882,3.89573889 L84.8326834,3.89573889 C83.9992572,3.89573889 83.5699164,4.35173889 83.5699164,5.23840556 L83.317363,20.5397389 C83.317363,21.1477389 83.6204271,21.4770722 84.2012999,21.4770722 L84.807428,21.4770722 C85.3630455,21.4770722 85.6661096,21.1477389 85.6661096,20.5397389 L85.8176416,7.41707222 L90.3636026,16.6130722 C90.5656453,17.0184056 90.8181987,17.1957389 91.1970288,17.1957389 L91.5253482,17.1957389 C91.9294336,17.1957389 92.1567317,17.0184056 92.3587744,16.6130722 L96.9299907,7.41707222 L97.0815227,20.5397389 C97.0815227,21.1477389 97.3845868,21.4770722 97.9402043,21.4770722 L98.5210771,21.4770722 C99.1019499,21.4770722 99.4050139,21.1477389 99.4050139,20.5397389 L99.1524605,5.23840556 Z"/><path d="M99.1524605,5.23840556 C99.1524605,4.35173889 98.7231198,3.89573889 97.8896936,3.89573889 L97.1825441,3.89573889 C96.4753946,3.89573889 95.9955432,4.19973889 95.6924791,4.88373889 L91.3738162,13.6997389 L87.0298979,4.88373889 C86.7268338,4.19973889 86.2722377,3.89573889 85.5650882,3.89573889 L84.8326834,3.89573889 C83.9992572,3.89573889 83.5699164,4.35173889 83.5699164,5.23840556 L83.317363,20.5397389 C83.317363,21.1477389 83.6204271,21.4770722 84.2012999,21.4770722 L84.807428,21.4770722 C85.3630455,21.4770722 85.6661096,21.1477389 85.6661096,20.5397389 L85.8176416,7.41707222 L90.3636026,16.6130722 C90.5656453,17.0184056 90.8181987,17.1957389 91.1970288,17.1957389 L91.5253482,17.1957389 C91.9294336,17.1957389 92.1567317,17.0184056 92.3587744,16.6130722 L96.9299907,7.41707222 L97.0815227,20.5397389 C97.0815227,21.1477389 97.3845868,21.4770722 97.9402043,21.4770722 L98.5210771,21.4770722 C99.1019499,21.4770722 99.4050139,21.1477389 99.4050139,20.5397389 L99.1524605,5.23840556 Z"/><path fill="#C7CBD1" d="M118.397029,20.4384056 L113.724791,5.49173889 C113.421727,4.35173889 112.790344,3.89573889 111.754875,3.89573889 L110.542618,3.89573889 C109.507149,3.89573889 108.875766,4.35173889 108.572702,5.49173889 L103.92572,20.4384056 C103.774188,21.0210722 104.077252,21.4770722 104.68338,21.4770722 L105.340019,21.4770722 C105.845125,21.4770722 106.148189,21.2490722 106.299721,20.6917389 L107.33519,17.3224056 L114.937047,17.3224056 L115.997772,20.6917389 C116.124048,21.2490722 116.452368,21.4770722 116.957474,21.4770722 L117.639369,21.4770722 C118.245497,21.4770722 118.548561,21.0464056 118.397029,20.4384056 Z M110.668895,6.58107222 C110.744661,6.30240556 110.870938,6.20107222 111.148747,6.20107222 C111.426555,6.20107222 111.527577,6.30240556 111.628598,6.58107222 L114.255153,15.0677389 L108.017084,15.0677389 L110.668895,6.58107222 Z"/><path d="M118.397029,20.4384056 L113.724791,5.49173889 C113.421727,4.35173889 112.790344,3.89573889 111.754875,3.89573889 L110.542618,3.89573889 C109.507149,3.89573889 108.875766,4.35173889 108.572702,5.49173889 L103.92572,20.4384056 C103.774188,21.0210722 104.077252,21.4770722 104.68338,21.4770722 L105.340019,21.4770722 C105.845125,21.4770722 106.148189,21.2490722 106.299721,20.6917389 L107.33519,17.3224056 L114.937047,17.3224056 L115.997772,20.6917389 C116.124048,21.2490722 116.452368,21.4770722 116.957474,21.4770722 L117.639369,21.4770722 C118.245497,21.4770722 118.548561,21.0464056 118.397029,20.4384056 Z M110.668895,6.58107222 C110.744661,6.30240556 110.870938,6.20107222 111.148747,6.20107222 C111.426555,6.20107222 111.527577,6.30240556 111.628598,6.58107222 L114.255153,15.0677389 L108.017084,15.0677389 L110.668895,6.58107222 Z"/><path fill="#C7CBD1" d="M135.141318,3.89573889 L134.610956,3.89573889 C134.055339,3.89573889 133.752275,4.22507222 133.752275,4.83307222 L133.752275,17.8544056 L126.529248,4.85840556 C126.200929,4.19973889 125.771588,3.89573889 125.064438,3.89573889 L124.357289,3.89573889 C123.523863,3.89573889 123.018756,4.37707222 123.018756,5.26373889 L123.018756,20.5397389 C123.018756,21.1477389 123.32182,21.4770722 123.877437,21.4770722 L124.433055,21.4770722 C124.988672,21.4770722 125.291736,21.1477389 125.291736,20.5397389 L125.291736,7.46773889 L132.514763,20.5144056 C132.843083,21.1730722 133.272423,21.4770722 133.979573,21.4770722 L134.661467,21.4770722 C135.494893,21.4770722 136,20.9957389 136,20.1090722 L136,4.83307222 C136,4.22507222 135.696936,3.89573889 135.141318,3.89573889 Z"/><path d="M135.141318,3.89573889 L134.610956,3.89573889 C134.055339,3.89573889 133.752275,4.22507222 133.752275,4.83307222 L133.752275,17.8544056 L126.529248,4.85840556 C126.200929,4.19973889 125.771588,3.89573889 125.064438,3.89573889 L124.357289,3.89573889 C123.523863,3.89573889 123.018756,4.37707222 123.018756,5.26373889 L123.018756,20.5397389 C123.018756,21.1477389 123.32182,21.4770722 123.877437,21.4770722 L124.433055,21.4770722 C124.988672,21.4770722 125.291736,21.1477389 125.291736,20.5397389 L125.291736,7.46773889 L132.514763,20.5144056 C132.843083,21.1730722 133.272423,21.4770722 133.979573,21.4770722 L134.661467,21.4770722 C135.494893,21.4770722 136,20.9957389 136,20.1090722 L136,4.83307222 C136,4.22507222 135.696936,3.89573889 135.141318,3.89573889 Z"/><polygon fill="#24272B" points="0 25.333 31.569 25.333 31.569 0 0 0"/><path fill="#225BFB" d="M18.9415042,2.68871111 C24.3906592,2.68871111 28.814658,7.12637222 28.814658,12.5923556 C28.814658,18.0583389 24.3906592,22.496 18.9415042,22.496 C13.4923491,22.496 9.06835036,18.0583389 9.06835036,12.5923556 C9.06835036,7.12637222 13.4923491,2.68871111 18.9415042,2.68871111 Z M18.9415042,5.96093333 C22.590164,5.96093333 25.5525101,8.93232222 25.5525101,12.5923556 C25.5525101,16.2522833 22.590164,19.2237778 18.9415042,19.2237778 C15.2928443,19.2237778 12.3304983,16.2522833 12.3304983,12.5923556 C12.3304983,8.93232222 15.2928443,5.96093333 18.9415042,5.96093333 Z"/></g></svg>