<svg xmlns="http://www.w3.org/2000/svg" width="197" height="15" viewBox="0 0 197 15"><g fill="none" fill-rule="evenodd" transform="translate(0 1)"><path fill="#C7CBD1" fill-rule="nonzero" d="M6.58 0 6.216 0C5.908 0 5.726.182 5.726.518L5.726 4.62 1.33 4.62 1.33.518C1.33.182 1.148 0 .84 0L.476 0C.168 0 0 .182 0 .518L0 9.198C0 9.534.168 9.716.476 9.716L.84 9.716C1.148 9.716 1.33 9.534 1.33 9.198L1.33 5.922 5.726 5.922 5.726 9.198C5.726 9.534 5.908 9.716 6.216 9.716L6.58 9.716C6.888 9.716 7.056 9.534 7.056 9.198L7.056.518C7.056.182 6.888 0 6.58 0ZM14.1499744 9.898C16.4879744 9.898 17.6219744 8.82 17.6219744 6.552L17.6219744.518C17.6219744.182 17.4539744 0 17.1459744 0L16.7819744 0C16.4739744 0 16.2919744.182 16.2919744.518L16.2919744 6.524C16.2919744 7.938 15.5919744 8.61 14.1499744 8.61 12.7079744 8.61 12.0219744 7.938 12.0219744 6.524L12.0219744.518C12.0219744.182 11.8539744 0 11.5459744 0L11.1679744 0C10.8599744 0 10.6919744.182 10.6919744.518L10.6919744 6.552C10.6919744 8.82 11.8119744 9.898 14.1499744 9.898ZM29.9659488.742C29.9659488.252 29.7279488 0 29.2659488 0L28.8739488 0C28.4819488 0 28.2159488.168 28.0479488.546L25.6539488 5.418 23.2459488.546C23.0779488.168 22.8259488 0 22.4339488 0L22.0279488 0C21.5659488 0 21.3279488.252 21.3279488.742L21.1879488 9.198C21.1879488 9.534 21.3559488 9.716 21.6779488 9.716L22.0139488 9.716C22.3219488 9.716 22.4899488 9.534 22.4899488 9.198L22.5739488 1.946 25.0939488 7.028C25.2059488 7.252 25.3459488 7.35 25.5559488 7.35L25.7379488 7.35C25.9619488 7.35 26.0879488 7.252 26.1999488 7.028L28.7339488 1.946 28.8179488 9.198C28.8179488 9.534 28.9859488 9.716 29.2939488 9.716L29.6159488 9.716C29.9379488 9.716 30.1059488 9.534 30.1059488 9.198L29.9659488.742ZM41.0779232 9.142 38.4879232.882C38.3199232.252 37.9699232 0 37.3959232 0L36.7239232 0C36.1499232 0 35.7999232.252 35.6319232.882L33.0559232 9.142C32.9719232 9.464 33.1399232 9.716 33.4759232 9.716L33.8399232 9.716C34.1199232 9.716 34.2879232 9.59 34.3719232 9.282L34.9459232 7.42 39.1599232 7.42 39.7479232 9.282C39.8179232 9.59 39.9999232 9.716 40.2799232 9.716L40.6579232 9.716C40.9939232 9.716 41.1619232 9.478 41.0779232 9.142ZM36.7939232 1.484C36.8359232 1.33 36.9059232 1.274 37.0599232 1.274 37.2139232 1.274 37.2699232 1.33 37.3259232 1.484L38.7819232 6.174 35.3239232 6.174 36.7939232 1.484ZM50.8038977 0 50.5098977 0C50.2018977 0 50.0338977.182 50.0338977.518L50.0338977 7.714 46.0298977.532C45.8478977.168 45.6098977 0 45.2178977 0L44.8258977 0C44.3638977 0 44.0838977.266 44.0838977.756L44.0838977 9.198C44.0838977 9.534 44.2518977 9.716 44.5598977 9.716L44.8678977 9.716C45.1758977 9.716 45.3438977 9.534 45.3438977 9.198L45.3438977 1.974 49.3478977 9.184C49.5298977 9.548 49.7678977 9.716 50.1598977 9.716L50.5378977 9.716C50.9998977 9.716 51.2798977 9.45 51.2798977 8.96L51.2798977.518C51.2798977.182 51.1118977 0 50.8038977 0ZM62.1218465 9.716 62.4858465 9.716C62.7938465 9.716 62.9618465 9.534 62.9618465 9.198L62.9618465 1.288 65.5238465 1.288C65.7898465 1.288 65.9438465 1.134 65.9438465.84L65.9438465.448C65.9438465.168 65.7898465 0 65.5238465 0L59.0698465 0C58.8038465 0 58.6498465.168 58.6498465.448L58.6498465.84C58.6498465 1.134 58.8038465 1.288 59.0698465 1.288L61.6318465 1.288 61.6318465 9.198C61.6318465 9.534 61.7998465 9.716 62.1218465 9.716ZM69.0198209 9.716 73.8218209 9.716C74.0738209 9.716 74.2138209 9.576 74.2418209 9.31L74.2978209 8.876C74.3398209 8.582 74.1858209 8.414 73.9198209 8.414L69.8878209 8.414 69.8878209 5.768 73.0518209 5.768C73.3038209 5.768 73.4578209 5.6 73.4578209 5.334L73.4578209 4.9C73.4578209 4.634 73.3038209 4.466 73.0518209 4.466L69.8878209 4.466 69.8878209 1.302 73.8498209 1.302C74.1018209 1.302 74.2558209 1.134 74.2558209.868L74.2558209.434C74.2558209.168 74.1018209 0 73.8498209 0L69.0198209 0C68.7258209 0 68.5578209.182 68.5578209.49L68.5578209 9.226C68.5578209 9.534 68.7258209 9.716 69.0198209 9.716ZM82.7497953 9.534 82.7917953 9.17C82.8337953 8.89 82.6937953 8.694 82.4277953 8.666L80.9997953 8.512C79.0677953 8.316 78.1997953 7.322 78.1997953 5.306L78.1997953 4.284C78.1997953 2.352 79.2357953 1.288 81.1257953 1.288L82.4137953 1.288C82.6937953 1.288 82.8477953 1.134 82.8477953.84L82.8477953.448C82.8477953.168 82.6937953 0 82.4137953 0L81.1397953 0C78.2697953 0 76.8277953 1.638 76.8277953 4.914 76.8277953 8.036 78.1437953 9.576 81.0277953 9.814L82.2877953 9.926C82.5537953 9.94 82.7217953 9.828 82.7497953 9.534ZM92.3497698 0 91.9857698 0C91.6777698 0 91.4957698.182 91.4957698.518L91.4957698 4.62 87.0997698 4.62 87.0997698.518C87.0997698.182 86.9177698 0 86.6097698 0L86.2457698 0C85.9377698 0 85.7697698.182 85.7697698.518L85.7697698 9.198C85.7697698 9.534 85.9377698 9.716 86.2457698 9.716L86.6097698 9.716C86.9177698 9.716 87.0997698 9.534 87.0997698 9.198L87.0997698 5.922 91.4957698 5.922 91.4957698 9.198C91.4957698 9.534 91.6777698 9.716 91.9857698 9.716L92.3497698 9.716C92.6577698 9.716 92.8257698 9.534 92.8257698 9.198L92.8257698.518C92.8257698.182 92.6577698 0 92.3497698 0Z" transform="translate(43.386 1.284)"/><g fill="#9098A1" fill-rule="nonzero" opacity=".755" transform="translate(144.739 1.416)"><path d="M5.57669923,2.49289535 L6.68465272,2.49289535 C6.63387151,1.06640523 5.31817675,0 3.49005349,0 C1.68039612,0 0.258522481,1.05255581 0.258522481,2.64062248 C0.258522481,3.91476899 1.18181705,4.67187054 2.65908837,5.09658605 L3.82243954,5.4289721 C4.81959768,5.70596047 5.70596047,6.05681241 5.70596047,6.99857287 C5.70596047,8.03266279 4.70880233,8.71590078 3.39772403,8.71590078 C2.27130465,8.71590078 1.27414651,8.21732171 1.18181705,7.1463 L0,7.1463 C0.110795349,8.69743489 1.36647597,9.7499907 3.39772403,9.7499907 C5.57669923,9.7499907 6.81391396,8.54970776 6.81391396,7.01703876 C6.81391396,5.24431318 5.13351783,4.67187054 4.15482558,4.41334806 L3.19459923,4.15482558 C2.49289535,3.97016667 1.36647597,3.60084884 1.36647597,2.58522481 C1.36647597,1.68039612 2.19744109,1.01562403 3.45312171,1.01562403 C4.59800698,1.01562403 5.46590388,1.56036783 5.57669923,2.49289535 Z"/><polygon points="9.047 1.145 12.02 1.145 12.02 9.584 13.165 9.584 13.165 1.145 16.138 1.145 16.138 .129 9.047 .129"/><path d="M24.9819066.12926124 24.9819066 6.29686899C24.9819066 7.68181086 24.0309132 8.678969 22.4520794 8.678969 20.8732457 8.678969 19.9222523 7.68181086 19.9222523 6.29686899L19.9222523.12926124 18.777367.12926124 18.777367 6.38919845C18.777367 8.32811706 20.2269395 9.7499907 22.4520794 9.7499907 24.6772194 9.7499907 26.1267918 8.32811706 26.1267918 6.38919845L26.1267918.12926124 24.9819066.12926124ZM32.2008491 9.58379768C35.0815282 9.58379768 36.7065266 7.7926062 36.7065266 4.83806357 36.7065266 1.90198682 35.0815282.12926124 32.3301103.12926124L29.2832382.12926124 29.2832382 9.58379768 32.2008491 9.58379768ZM30.4281235 8.56817365 30.4281235 1.14488527 32.2562468 1.14488527C34.4721538 1.14488527 35.5985731 2.54829302 35.5985731 4.83806357 35.5985731 7.1463 34.4721538 8.56817365 32.1269855 8.56817365L30.4281235 8.56817365Z"/><polygon points="40.639 .129 39.494 .129 39.494 9.584 40.639 9.584"/><path d="M51.7722458,4.85652946 C51.7722458,1.86505504 50.0179861,0 47.5989543,0 C45.1799225,0 43.4256628,1.86505504 43.4256628,4.85652946 C43.4256628,7.84800388 45.1799225,9.71305892 47.5989543,9.71305892 C50.0179861,9.71305892 51.7722458,7.84800388 51.7722458,4.85652946 Z M50.6642923,4.85652946 C50.6642923,7.31249303 49.3162822,8.64203721 47.5989543,8.64203721 C45.8816264,8.64203721 44.5336163,7.31249303 44.5336163,4.85652946 C44.5336163,2.40056589 45.8816264,1.07102171 47.5989543,1.07102171 C49.3162822,1.07102171 50.6642923,2.40056589 50.6642923,4.85652946 Z"/></g><g stroke="#225BFB" stroke-width="1.455"><ellipse cx="5.443" cy="6.5" rx="4.716" ry="4.705"/><polygon points="17.827 1.904 27.029 1.894 27.02 11.096 17.818 11.106" transform="rotate(45 22.423 6.5)"/></g></g></svg>